**ABCDEFGHIJKLMNOPQRSTUVWXYZabcdefghijklmnopqrstuvwxyz**************************
**PARASOLID !"#$%&'()*+,-./:;<=>?@[\]^_`{|}~0123456789**************************
**PART1;
MC=unknown;
MC_MODEL=unknown;
MC_ID=unknown;
OS=unknown;
OS_RELEASE=unknown;
FRU=sdl_parasolid_customer_support;
APPL=parasolid_acceptance_tests;
SITE=unknown;
USER=unknown;
FORMAT=text;
GUISE=transmit;
KEY=/users/zaided/models/semi_side5_nat.x_t;
FILE=/users/zaided/models/semi_side5_nat.x_t;
DATE=unknown;
**PART2;
SCH=SCH_2600217_25001;
USFLD_SIZE=1;
**PART3;
**END_OF_HEADER*****************************************************************
T51 : TRANSMIT FILE created by modeller version 260021723 SCH_2600217_25001_1300
6189 1 12 29 CCCCCCCCCCCCCDI5 owner1040 0 CCCCCCCCCA16 index_map_offset0 0 1 dA9
 index_map82 0 A17 node_id_index_map82 0 A20 schema_embedding_map82 0 A5 child12
 0 A14 lowest_node_id0 0 1 dZ1 117 2 3 0 0 0 0 1e3 1e-8 0 4 0 1 0 1 1 5 6 7 0 8
 9 0 0 0 0 0 0 0 0 81 255 1 2 117 10 1 11 0 0 0 12 0 70 11 CI9 list_type0 0 1 uI
10 notransmit0 0 1 lCCCDCCDI12 finger_index0 0 1 dI12 finger_block1012 0 CZ3 0 4
 T1 0 0 5 20 1 13 13 0 13 255 5 3 0 1 0 14 0 0 15 0 0 53 255 6 75 0 14 16 0 0 +0
 0 0 2.5 0 -1 0 1 0 234291072916505e-29 0 31 255 7 22 0 9 17 0 0 +0 0 0 -2342910
72916505e-29 0 1 -1 1224646799147352e-31 -234291072916505e-29 .5 0 19 8 CCCCCCCA
5 owner12 0 Z8 34 0 1 15 0 18 V0 0 16 255 9 20 19 ?20 0 21 7 0 0 1 0 81 1 19 105
 22 9 0 0 0 23 24 0 17 255 20 0 25 20 20 0 26 9 0 0 +0 16 21 11 23 ?27 9 0 17 0
 0 1 0 81 1 23 106 22 21 0 0 19 28 29 0 17 27 0 30 27 27 0 31 21 0 0 +0 31 17 14
 0 21 0 7 0 +0 0 0 234291072916505e-29 0 -1 -1 0 -234291072916505e-29 2.5 0 15 2
55 30 69 0 27 14 0 0 17 31 0 32 31 31 0 27 21 0 0 -0 15 32 93 0 31 33 34 0 14 25
5 33 24 35 ?0 36 32 5 37 -0 0 0 36 18 0 15 34 23 0 26 33 0 0 17 26 0 34 26 26 0
 20 9 0 0 -0 81 1 35 116 38 33 39 0 40 0 41 0 14 36 32 40 ?33 14 25 5 16 +0 0 33
 14 18 0 50 255 37 25 0 33 0 16 0 +0 0 0 234291072916505e-29 0 -1 -1 0 -23429107
2916505e-29 0 13 18 33 0 0 0 0 0 0 8 14 0 14 14 70 42 ?36 0 30 5 6 +0 0 36 0 18
 0 81 1 42 112 38 14 43 0 0 40 44 0 80 255 1 38 0 45 8001 0 0 0 0 3 5 0 0 0 FFFF
TFTFFFFFFF2 0 81 1 43 111 46 14 28 42 0 47 48 0 81 1 40 114 38 36 47 0 42 35 49
 0 83 255 3 44 .5960784 .6666667 .6862745 0 81 1 47 113 46 36 50 40 43 39 51 0 8
3 3 49 .5960784 .6666667 .6862745 0 80 1 46 52 53 8015 0 0 0 0 3 5 0 0 0 FFFFTFF
FFFFFFF2 0 81 1 50 108 22 36 0 47 28 54 55 0 81 1 39 115 46 33 54 35 47 0 56 0 8
3 1 51 0 0 81 1 54 109 22 33 0 39 50 0 57 0 83 1 56 0 0 80 1 22 58 59 9000 1 1 1
 1 1 1 1 1 0 FFFFTFTFFFFFFF3 0 84 255 32 57 bfc39149d36296f95310f4630cdb55480 79
 255 15 59 UGS/ObjectState0 81 1 28 107 22 14 0 43 23 50 60 0 84 32 55 9e6b12287
93b84e14ad611a42b0db2e10 84 32 60 3036e44cadc691f55fb5db10414197e30 79 21 53 SDL
/TYSA_TRANSLUCENCY0 83 1 48 0 0 79 15 45 SDL/TYSA_COLOUR0 53 16 74 0 36 37 6 0 -
0 0 0 .5 0 -1 0 -1 0 -234291072916505e-29 0 15 25 31 0 20 36 0 0 83 3 41 .596078
4 .6666667 .6862745 0 84 32 29 2441e513cb67cd8f9ea205a8222eff0b0 84 32 24 833e9b
6529ad67a0b37575b94a4e55a90 19 15 1 0 1 0 8 5 S0 0 74 4 CI16 index_map_offset0 0
 1 dCCZ20 13 5 0 0 54 11 39 35 2 0 0 0 0 0 0 0 0 0 0 0 0 0 0 0 0 81 2 11 110 61
 1 0 2 0 0 62 63 0 80 2 61 64 65 8004 0 0 0 0 3 5 0 0 0 FFTFFFFFFFFFFF2 3 0 83 1
 62 7830.64 0 84 8 63 Kg/Cu M 0 79 16 65 SDL/TYSA_DENSITY0 80 1 10 22 66 9000 0
 0 0 0 3 5 0 0 0 FFTFFFFFFFFFFF1 0 82 255 1 12 129 0 79 24 66 UG2/BODY_COLOR_ATT
RIBUTE0 1 0 
