**ABCDEFGHIJKLMNOPQRSTUVWXYZabcdefghijklmnopqrstuvwxyz**************************
**PARASOLID !"#$%&'()*+,-./:;<=>?@[\]^_`{|}~0123456789**************************
**PART1;
MC=SUSE Linux-64;
MC_MODEL=genuineintel family 6 model 13 stepping 7, intel(r) core(tm) i7-3820 cpu @ 3.60ghz;
MC_ID=twister;
OS=linux;
OS_RELEASE=2.6.32-5-amd64 #1 smp wed feb 18 13:14:10 utc 2015;
FRU=mdc_ugii_v7.0_djl_can_vrh;
APPL=unigraphics;
SITE=unknown;
USER=zaided;
FORMAT=text;
GUISE=transmit;
KEY=semi_side5;
FILE=/users/zaided/models/semi_side5.xmt_txt;
DATE=4-mar-2015;
**PART2;
SCH=SCH_2600169_25001;
USFLD_SIZE=0;
**PART3;
**END_OF_HEADER*****************************************************************
T51 : TRANSMIT FILE created by modeller version 260016923 SCH_2600169_25001_1300
6189 0 12 29 CCCCCCCCCCCCCDI5 owner1040 0 CCCCCCCCCA16 index_map_offset0 0 1 dA9
 index_map82 0 A17 node_id_index_map82 0 A20 schema_embedding_map82 0 A5 child12
 0 A14 lowest_node_id0 0 1 dZ1 117 2 3 0 0 0 0 1e3 1e-8 0 0 0 1 0 1 1 4 5 6 0 7
 8 0 0 0 0 0 0 0 81 255 1 2 117 9 1 10 0 0 0 11 70 11 CI9 list_type0 0 1 uI10 no
transmit0 0 1 lCCCDCCDI12 finger_index0 0 1 dI12 finger_block1012 0 CZ3 0 4 T1 0
 0 5 20 1 12 12 13 255 4 3 0 1 0 13 0 0 14 0 53 255 5 75 0 13 15 0 0 +0 0 0 2.5
 0 -1 0 1 0 234291072916505e-29 31 255 6 22 0 8 16 0 0 +0 0 0 -234291072916505e-
29 0 1 -1 1224646799147352e-31 -234291072916505e-29 .5 19 8 CCCCCCCA5 owner12 0
 Z7 34 0 1 14 0 17 V0 16 255 8 20 18 ?19 0 20 6 0 0 1 81 1 18 105 21 8 0 0 0 22
 23 17 255 19 0 24 19 19 0 25 8 0 0 +16 20 11 22 ?26 8 0 16 0 0 1 81 1 22 106 21
 20 0 0 18 27 28 17 26 0 29 26 26 0 30 20 0 0 +31 16 14 0 20 0 6 0 +0 0 0 234291
072916505e-29 0 -1 -1 0 -234291072916505e-29 2.5 15 255 29 69 0 26 13 0 17 30 0
 31 30 30 0 26 20 0 0 -15 31 93 0 30 32 33 14 255 32 24 34 ?0 35 31 4 36 -0 0 0
 35 17 15 33 23 0 25 32 0 17 25 0 33 25 25 0 19 8 0 0 -81 1 34 116 37 32 38 0 39
 0 40 14 35 32 39 ?32 13 24 4 15 +0 0 32 13 17 50 255 36 25 0 32 0 15 0 +0 0 0 2
34291072916505e-29 0 -1 -1 0 -234291072916505e-29 13 17 33 0 0 0 0 0 0 7 13 14 1
3 70 41 ?35 0 29 4 5 +0 0 35 0 17 81 1 41 112 37 13 42 0 0 39 43 80 255 1 37 0 4
4 8001 0 0 0 0 3 5 0 0 0 FFFFTFTFFFFFFF2 81 1 42 111 45 13 27 41 0 46 47 81 1 39
 114 37 35 46 0 41 34 48 83 255 3 43 .5960784 .6666667 .6862745 81 1 46 113 45 3
5 49 39 42 38 50 83 3 48 .5960784 .6666667 .6862745 80 1 45 51 52 8015 0 0 0 0 3
 5 0 0 0 FFFFTFFFFFFFFF2 81 1 49 108 21 35 0 46 27 53 54 81 1 38 115 45 32 53 34
 46 0 55 83 1 50 0 81 1 53 109 21 32 0 38 49 0 56 83 1 55 0 80 1 21 57 58 9000 1
 1 1 1 1 1 1 1 0 FFFFTFTFFFFFFF3 84 255 32 56 bfc39149d36296f95310f4630cdb554879
 255 15 58 UGS/ObjectState81 1 27 107 21 13 0 42 22 49 59 84 32 54 9e6b1228793b8
4e14ad611a42b0db2e184 32 59 3036e44cadc691f55fb5db10414197e379 21 52 SDL/TYSA_TR
ANSLUCENCY83 1 47 0 79 15 44 SDL/TYSA_COLOUR53 15 74 0 35 36 5 0 -0 0 0 .5 0 -1
 0 -1 0 -234291072916505e-29 15 24 31 0 19 35 0 83 3 40 .5960784 .6666667 .68627
45 84 32 28 2441e513cb67cd8f9ea205a8222eff0b84 32 23 833e9b6529ad67a0b37575b94a4
e55a919 14 1 0 1 0 7 4 S0 74 4 CI16 index_map_offset0 0 1 dCCZ20 12 5 0 0 53 10
 38 34 2 0 0 0 0 0 0 0 0 0 0 0 0 0 0 0 81 2 10 110 60 1 0 2 0 0 61 62 80 2 60 63
 64 8004 0 0 0 0 3 5 0 0 0 FFTFFFFFFFFFFF2 3 83 1 61 7830.64 84 8 62 Kg/Cu M 79
 16 64 SDL/TYSA_DENSITY80 1 9 65 66 9000 0 0 0 0 3 5 0 0 0 FFTFFFFFFFFFFF1 82 25
5 1 11 129 79 24 66 UG2/BODY_COLOR_ATTRIBUTE1 0 
