**ABCDEFGHIJKLMNOPQRSTUVWXYZabcdefghijklmnopqrstuvwxyz**************************
**PARASOLID !"#$%&'()*+,-./:;<=>?@[\]^_`{|}~0123456789**************************
**PART1;
MC=SUSE Linux-64;
MC_MODEL=genuineintel family 6 model 13 stepping 7, intel(r) core(tm) i7-3820 cpu @ 3.60ghz;
MC_ID=twister;
OS=linux;
OS_RELEASE=2.6.32-5-amd64 #1 smp wed feb 18 13:14:10 utc 2015;
FRU=mdc_ugii_v7.0_djl_can_vrh;
APPL=unigraphics;
SITE=unknown;
USER=zaided;
FORMAT=text;
GUISE=transmit;
KEY=c-s50;
FILE=/users/zaided/models/c-s50.xmt_txt;
DATE=20-feb-2015;
**PART2;
SCH=SCH_2600169_25001;
USFLD_SIZE=0;
**PART3;
**END_OF_HEADER*****************************************************************
T51 : TRANSMIT FILE created by modeller version 260016923 SCH_2600169_25001_1300
6189 0 12 29 CCCCCCCCCCCCCDI5 owner1040 0 CCCCCCCCCA16 index_map_offset0 0 1 dA9
 index_map82 0 A17 node_id_index_map82 0 A20 schema_embedding_map82 0 A5 child12
 0 A14 lowest_node_id0 0 1 dZ1 131 2 3 0 0 0 0 1e3 1e-8 0 0 0 1 0 1 1 4 5 6 7 8
 9 10 0 0 0 0 0 0 81 255 1 2 131 11 1 12 0 0 0 13 70 11 CI9 list_type0 0 1 uI10
 notransmit0 0 1 lCCCDCCDI12 finger_index0 0 1 dI12 finger_block1012 0 CZ3 0 4 T
1 0 0 5 20 1 14 14 13 255 4 3 0 1 15 16 0 0 17 0 50 255 5 54 0 16 18 0 0 +0 0 25
 0 0 1 1 0 0 30 255 6 62 0 9 19 0 0 +0 -25 25 -1 0 0 29 255 7 58 0 10 20 0 -25 -
25 25 19 8 CCCCCCCA5 owner12 0 Z8 1 0 1 17 0 21 V0 16 255 9 34 22 ?23 0 24 6 0 0
 1 18 255 10 23 0 23 0 25 7 ?1 17 255 23 0 26 27 28 10 29 9 0 30 +18 25 21 0 31
 10 32 20 ?1 17 31 0 33 34 35 25 30 24 0 36 +18 32 19 0 37 25 38 39 ?1 29 20 57
 0 25 39 7 -25 25 25 29 39 56 0 32 40 20 25 25 25 29 40 55 0 38 41 39 25 -25 25
 18 38 17 0 29 32 42 40 ?1 29 41 41 0 43 44 40 -25 -25 -25 18 43 11 0 27 45 46 4
1 ?1 29 44 40 0 45 47 41 -25 25 -25 18 45 13 0 34 42 43 44 ?1 29 47 39 0 42 48 4
4 25 25 -25 18 42 15 0 49 38 45 47 ?1 29 48 38 0 46 0 47 25 -25 -25 18 46 10 0 5
0 43 0 48 ?1 17 50 0 51 52 53 46 28 54 0 55 -15 255 51 7 0 52 56 0 17 52 0 51 57
 50 42 58 59 0 0 +17 53 0 51 50 57 38 60 61 0 28 +17 28 0 26 23 55 38 50 54 0 0
 +16 54 18 62 ?28 63 59 64 0 0 1 17 55 0 26 28 27 46 65 66 0 58 +15 26 32 0 28 6
7 0 17 27 0 26 55 23 43 35 68 0 69 -17 65 0 70 71 58 43 55 66 0 0 -16 66 12 72 ?
55 73 0 74 0 0 1 17 58 0 70 65 75 46 52 59 0 0 -15 70 8 0 58 76 0 17 75 0 70 58
 71 42 77 78 0 52 -16 59 6 79 ?52 54 78 80 0 0 1 81 1 79 79 81 59 0 0 22 82 83 1
6 78 16 84 ?77 59 73 85 0 0 1 30 80 43 0 59 74 85 0 +25 0 -25 0 1 0 30 74 42 0 6
6 0 80 0 +0 -25 -25 1 0 0 30 85 44 0 78 80 86 0 +0 25 -25 -1 0 0 30 86 45 0 73 8
5 64 0 +-25 0 -25 0 -1 0 16 73 14 87 ?69 78 66 86 0 0 1 30 64 50 0 54 86 88 0 +2
5 -25 -25 0 0 1 30 88 51 0 63 64 89 0 +25 25 -25 0 0 1 16 63 20 90 ?57 91 54 88
 0 0 1 30 89 52 0 91 88 92 0 +-25 25 -25 0 0 1 16 91 22 82 ?93 68 63 89 0 0 1 30
 92 53 0 68 89 94 0 +-25 -25 -25 0 0 1 16 68 24 95 ?35 61 91 92 0 0 1 30 94 59 0
 61 92 96 0 +25 0 25 0 -1 0 16 61 25 97 ?53 98 68 94 0 0 1 30 96 60 0 98 94 19 0
 +0 25 25 1 0 0 16 98 28 99 ?37 24 61 96 0 0 1 30 19 61 0 24 96 6 0 +-25 0 25 0
 1 0 16 24 31 100 ?31 9 98 19 0 0 1 81 1 100 84 81 24 0 0 87 62 101 80 255 1 81
 102 103 9000 1 1 1 1 1 1 1 1 0 FFFFTFTFFFFFFF3 81 1 87 83 81 73 0 0 90 100 104
 81 1 62 85 81 54 0 0 100 95 105 84 255 32 101 104117d286a2c20cf950431848f2afed8
1 1 95 86 81 68 0 0 62 84 106 84 32 105 2318b0fbeba5e7f4b51197d17d94511981 1 84
 87 81 78 0 0 95 107 108 84 32 106 39bf577855e0bfa5a44ad25e9bf4c26781 1 107 88 8
1 16 0 109 84 110 111 84 32 108 a6f803a7f41e349c5a70e7a03cb65abd14 255 16 36 112
 ?67 0 113 4 5 +0 0 67 0 21 81 1 109 117 114 16 107 112 0 115 116 81 1 110 89 81
 117 0 118 107 119 120 84 32 111 8fad42933df0a772de0728592098c2d814 117 27 121 ?
76 122 123 4 124 +0 0 76 122 21 81 1 118 123 114 117 110 121 125 126 127 81 1 11
9 90 81 67 0 115 110 128 129 84 32 120 f3d7de99bb45e7da9de9bb469d0481a914 67 33
 130 ?122 16 26 4 18 +0 0 122 16 21 81 1 115 119 114 67 119 130 109 125 131 81 1
 128 91 81 56 0 132 119 133 134 84 32 129 14afbb5a1bed99482027cc58582f4ef414 56
 2 135 ?0 76 51 4 136 +0 0 0 76 21 81 1 132 127 114 56 128 135 126 137 138 81 1
 133 92 81 76 0 126 128 139 140 84 32 134 e4cad2cfeaff60d9e45b3becbc6cb3f714 76
 9 141 ?56 117 70 4 142 +0 0 56 117 21 81 1 126 125 114 76 133 141 118 132 143 8
1 1 139 93 81 122 0 125 133 144 145 84 32 140 30d32dee6a5bd0e6d62f6024b99f683214
 122 30 146 ?117 67 33 4 147 +0 0 117 67 21 81 1 125 121 114 122 139 146 115 118
 148 81 1 144 116 81 149 0 137 139 0 150 84 32 145 21c08ce2a875975baeed1236d8ec4
9d814 149 101 151 ?0 0 0 15 152 -0 0 0 0 153 81 1 137 129 114 149 144 151 132 0
 154 84 32 150 c33f924a88aa5a87051d6d4c91aad60f80 1 114 155 156 8015 0 0 0 0 3 5
 0 0 0 FFFFTFFFFFFFFF2 81 1 151 130 157 149 137 0 135 0 158 83 255 1 154 0 80 1
 157 0 159 8001 0 0 0 0 3 5 0 0 0 FFFFTFTFFFFFFF2 81 1 135 128 157 56 132 0 141
 151 160 83 3 158 .5960784 .6666667 .6862745 81 1 141 126 157 76 126 0 121 135 1
61 83 3 160 .5960784 .6666667 .6862745 81 1 121 124 157 117 118 0 146 141 162 83
 3 161 .5960784 .6666667 .6862745 81 1 146 122 157 122 125 0 130 121 163 83 3 16
2 .5960784 .6666667 .6862745 81 1 130 120 157 67 115 0 112 146 164 83 3 163 .596
0784 .6666667 .6862745 81 1 112 118 157 16 109 0 0 130 165 83 3 164 .5960784 .66
66667 .6862745 83 3 165 .5960784 .6666667 .6862745 79 255 15 159 SDL/TYSA_COLOUR
79 21 156 SDL/TYSA_TRANSLUCENCY13 15 99 0 1 0 149 0 0 17 0 53 255 152 107 0 149
 0 142 0 +0 0 0 .5 0 0 1 1 0 0 13 153 105 0 0 0 0 0 0 166 149 19 166 104 0 1 0 1
7 153 V0 19 17 5 0 1 166 8 4 S0 50 142 37 0 76 152 136 0 +0 0 -25 0 0 -1 -1 0 0
 50 136 46 0 56 142 124 0 +25 0 -25 1 0 0 0 0 -1 50 124 47 0 117 136 147 0 +0 25
 -25 0 1 0 0 0 1 50 147 48 0 122 124 18 0 +-25 0 -25 -1 0 0 0 0 1 50 18 49 0 67
 147 5 0 +0 -25 -25 0 -1 0 0 0 -1 83 1 148 0 15 33 29 0 35 122 0 13 21 4 0 0 0 0
 0 0 8 16 17 35 0 33 31 69 10 27 68 0 0 +17 69 0 33 35 34 43 71 73 0 65 +17 34 0
 33 69 31 45 93 91 0 77 -17 71 0 70 75 65 45 69 73 0 0 -17 93 0 123 37 77 25 34
 91 0 0 +17 77 0 123 93 49 45 75 78 0 71 +15 123 26 0 93 117 0 17 49 0 123 77 37
 42 57 63 0 75 -17 37 0 123 49 93 32 36 98 0 60 +17 57 0 51 53 52 32 49 63 0 0 +
17 36 0 113 30 60 25 37 98 0 93 -17 60 0 113 36 29 32 53 61 0 57 -15 113 35 0 29
 16 0 17 29 0 113 60 30 38 23 9 0 53 -17 30 0 113 29 36 10 31 24 0 35 -83 1 143
 0 83 1 138 0 83 1 131 0 83 1 127 0 83 1 116 0 81 1 90 82 81 63 0 0 97 87 167 84
 32 104 1f4a4e1b86d769980cce685f72654cf581 1 97 81 81 61 0 0 82 90 168 84 32 167
 189959db8ebd81ffaab8d669777bb82981 1 82 80 81 91 0 0 79 97 169 84 32 168 f1e0ef
d180644a6c61c233ab968b6e0d84 32 169 b430c7809c0ae8949d1099c4404cd35879 15 103 UG
S/ObjectState81 1 99 76 81 98 0 0 0 72 170 81 1 72 77 81 66 0 0 99 22 171 84 32
 170 792a37bb4d3639585e091ff13a675b4181 1 22 78 81 9 0 0 72 79 172 84 32 171 308
f2ad367ee5407e40fa0404a16721484 32 172 a32ef9bc35ec24b464ff45273cef3b7f84 32 83
 8da9cc1f7819268cdabc0bf99fcabd1874 4 CI16 index_map_offset0 0 1 dCCZ20 14 5 0 0
 144 12 137 151 2 0 0 0 0 0 0 0 0 0 0 0 0 0 0 0 81 2 12 115 173 1 0 2 0 0 174 17
5 80 2 173 176 177 8004 0 0 0 0 3 5 0 0 0 FFTFFFFFFFFFFF2 3 83 1 174 7830.64 84
 8 175 Kg/Cu M 79 16 177 SDL/TYSA_DENSITY80 1 11 178 179 9000 0 0 0 0 3 5 0 0 0
 FFTFFFFFFFFFFF1 82 255 1 13 129 79 24 179 UG2/BODY_COLOR_ATTRIBUTE1 0 
