solid boundary
  facet normal -0.3574067443365932 0.3574067443365933 0.8628562094610168
    outer loop
      vertex -1.767766952966369 2.164890140588734e-16 1.767766952966369
      vertex 1.530808498934192e-16 0 2.5
      vertex 1.082445070294367e-16 1.767766952966369 1.767766952966369
    endloop
  endfacet
  facet normal -0.3574067443365932 0.3574067443365933 -0.8628562094610167
    outer loop
      vertex 1.530808498934192e-16 0 -2.5
      vertex -1.767766952966369 2.164890140588734e-16 -1.767766952966369
      vertex 1.082445070294367e-16 1.767766952966369 -1.767766952966369
    endloop
  endfacet
  facet normal -0.8628562094610168 0.3574067443365934 0.3574067443365933
    outer loop
      vertex -1.767766952966369 1.767766952966369 0
      vertex -2.5 3.061616997868383e-16 0
      vertex -1.767766952966369 2.164890140588734e-16 1.767766952966369
    endloop
  endfacet
  facet normal -0.8628562094610168 0.3574067443365934 -0.3574067443365933
    outer loop
      vertex -2.5 3.061616997868383e-16 0
      vertex -1.767766952966369 1.767766952966369 0
      vertex -1.767766952966369 2.164890140588734e-16 -1.767766952966369
    endloop
  endfacet
  facet normal -0.5773502691896258 0.5773502691896258 0.5773502691896258
    outer loop
      vertex 1.082445070294367e-16 1.767766952966369 1.767766952966369
      vertex -1.767766952966369 1.767766952966369 0
      vertex -1.767766952966369 2.164890140588734e-16 1.767766952966369
    endloop
  endfacet
  facet normal -0.3574067443365933 0.8628562094610169 0.3574067443365933
    outer loop
      vertex 1.530808498934192e-16 2.5 0
      vertex -1.767766952966369 1.767766952966369 0
      vertex 1.082445070294367e-16 1.767766952966369 1.767766952966369
    endloop
  endfacet
  facet normal -0.3574067443365933 0.8628562094610169 -0.3574067443365933
    outer loop
      vertex -1.767766952966369 1.767766952966369 0
      vertex 1.530808498934192e-16 2.5 0
      vertex 1.082445070294367e-16 1.767766952966369 -1.767766952966369
    endloop
  endfacet
  facet normal -0.5773502691896258 0.5773502691896258 -0.5773502691896258
    outer loop
      vertex -1.767766952966369 1.767766952966369 0
      vertex 1.082445070294367e-16 1.767766952966369 -1.767766952966369
      vertex -1.767766952966369 2.164890140588734e-16 -1.767766952966369
    endloop
  endfacet
  facet normal 0.3574067443365934 0.3574067443365934 -0.8628562094610168
    outer loop
      vertex 1.767766952966369 0 -1.767766952966369
      vertex 1.530808498934192e-16 0 -2.5
      vertex 1.082445070294367e-16 1.767766952966369 -1.767766952966369
    endloop
  endfacet
  facet normal 0.3574067443365934 0.3574067443365933 0.8628562094610168
    outer loop
      vertex 1.530808498934192e-16 0 2.5
      vertex 1.767766952966369 0 1.767766952966369
      vertex 1.082445070294367e-16 1.767766952966369 1.767766952966369
    endloop
  endfacet
  facet normal 0.8628562094610168 0.3574067443365933 -0.3574067443365933
    outer loop
      vertex 1.767766952966369 1.767766952966369 0
      vertex 2.5 0 0
      vertex 1.767766952966369 0 -1.767766952966369
    endloop
  endfacet
  facet normal 0.8628562094610168 0.3574067443365933 0.3574067443365933
    outer loop
      vertex 2.5 0 0
      vertex 1.767766952966369 1.767766952966369 0
      vertex 1.767766952966369 0 1.767766952966369
    endloop
  endfacet
  facet normal 0.5773502691896258 0.5773502691896258 -0.5773502691896258
    outer loop
      vertex 1.082445070294367e-16 1.767766952966369 -1.767766952966369
      vertex 1.767766952966369 1.767766952966369 0
      vertex 1.767766952966369 0 -1.767766952966369
    endloop
  endfacet
  facet normal 0.3574067443365934 0.8628562094610168 -0.3574067443365933
    outer loop
      vertex 1.530808498934192e-16 2.5 0
      vertex 1.767766952966369 1.767766952966369 0
      vertex 1.082445070294367e-16 1.767766952966369 -1.767766952966369
    endloop
  endfacet
  facet normal 0.3574067443365934 0.8628562094610168 0.3574067443365933
    outer loop
      vertex 1.767766952966369 1.767766952966369 0
      vertex 1.530808498934192e-16 2.5 0
      vertex 1.082445070294367e-16 1.767766952966369 1.767766952966369
    endloop
  endfacet
  facet normal 0.5773502691896258 0.5773502691896258 0.5773502691896258
    outer loop
      vertex 1.767766952966369 1.767766952966369 0
      vertex 1.082445070294367e-16 1.767766952966369 1.767766952966369
      vertex 1.767766952966369 0 1.767766952966369
    endloop
  endfacet
  facet normal -0.8628562094610169 -0.3574067443365931 0.3574067443365933
    outer loop
      vertex -2.5 3.061616997868383e-16 0
      vertex -1.767766952966369 -1.767766952966369 0
      vertex -1.767766952966369 2.164890140588734e-16 1.767766952966369
    endloop
  endfacet
  facet normal -0.8628562094610169 -0.3574067443365931 -0.3574067443365933
    outer loop
      vertex -1.767766952966369 -1.767766952966369 0
      vertex -2.5 3.061616997868383e-16 0
      vertex -1.767766952966369 2.164890140588734e-16 -1.767766952966369
    endloop
  endfacet
  facet normal -0.3574067443365933 -0.8628562094610168 -0.3574067443365933
    outer loop
      vertex -3.2473352108831e-16 -1.767766952966369 -1.767766952966369
      vertex -4.592425496802574e-16 -2.5 0
      vertex -1.767766952966369 -1.767766952966369 0
    endloop
  endfacet
  facet normal 0.3574067443365934 -0.3574067443365934 -0.8628562094610168
    outer loop
      vertex -3.2473352108831e-16 -1.767766952966369 -1.767766952966369
      vertex 1.530808498934192e-16 0 -2.5
      vertex 1.767766952966369 0 -1.767766952966369
    endloop
  endfacet
  facet normal -0.5773502691896258 -0.5773502691896256 -0.5773502691896258
    outer loop
      vertex -1.767766952966369 2.164890140588734e-16 -1.767766952966369
      vertex -3.2473352108831e-16 -1.767766952966369 -1.767766952966369
      vertex -1.767766952966369 -1.767766952966369 0
    endloop
  endfacet
  facet normal -0.3574067443365934 -0.3574067443365931 -0.8628562094610167
    outer loop
      vertex 1.530808498934192e-16 0 -2.5
      vertex -3.2473352108831e-16 -1.767766952966369 -1.767766952966369
      vertex -1.767766952966369 2.164890140588734e-16 -1.767766952966369
    endloop
  endfacet
  facet normal -0.3574067443365933 -0.8628562094610168 0.3574067443365933
    outer loop
      vertex -4.592425496802574e-16 -2.5 0
      vertex -3.2473352108831e-16 -1.767766952966369 1.767766952966369
      vertex -1.767766952966369 -1.767766952966369 0
    endloop
  endfacet
  facet normal 0.3574067443365934 -0.3574067443365934 0.8628562094610168
    outer loop
      vertex 1.530808498934192e-16 0 2.5
      vertex -3.2473352108831e-16 -1.767766952966369 1.767766952966369
      vertex 1.767766952966369 0 1.767766952966369
    endloop
  endfacet
  facet normal -0.5773502691896258 -0.5773502691896256 0.5773502691896258
    outer loop
      vertex -3.2473352108831e-16 -1.767766952966369 1.767766952966369
      vertex -1.767766952966369 2.164890140588734e-16 1.767766952966369
      vertex -1.767766952966369 -1.767766952966369 0
    endloop
  endfacet
  facet normal -0.3574067443365933 -0.3574067443365932 0.8628562094610168
    outer loop
      vertex -3.2473352108831e-16 -1.767766952966369 1.767766952966369
      vertex 1.530808498934192e-16 0 2.5
      vertex -1.767766952966369 2.164890140588734e-16 1.767766952966369
    endloop
  endfacet
  facet normal 0.3574067443365931 -0.8628562094610169 -0.3574067443365933
    outer loop
      vertex 1.767766952966368 -1.767766952966369 0
      vertex -4.592425496802574e-16 -2.5 0
      vertex -3.2473352108831e-16 -1.767766952966369 -1.767766952966369
    endloop
  endfacet
  facet normal 0.3574067443365931 -0.8628562094610169 0.3574067443365933
    outer loop
      vertex -4.592425496802574e-16 -2.5 0
      vertex 1.767766952966368 -1.767766952966369 0
      vertex -3.2473352108831e-16 -1.767766952966369 1.767766952966369
    endloop
  endfacet
  facet normal 0.5773502691896257 -0.5773502691896258 -0.5773502691896258
    outer loop
      vertex 1.767766952966369 0 -1.767766952966369
      vertex 1.767766952966368 -1.767766952966369 0
      vertex -3.2473352108831e-16 -1.767766952966369 -1.767766952966369
    endloop
  endfacet
  facet normal 0.8628562094610167 -0.3574067443365934 -0.3574067443365932
    outer loop
      vertex 2.5 0 0
      vertex 1.767766952966368 -1.767766952966369 0
      vertex 1.767766952966369 0 -1.767766952966369
    endloop
  endfacet
  facet normal 0.8628562094610167 -0.3574067443365934 0.3574067443365932
    outer loop
      vertex 1.767766952966368 -1.767766952966369 0
      vertex 2.5 0 0
      vertex 1.767766952966369 0 1.767766952966369
    endloop
  endfacet
  facet normal 0.5773502691896256 -0.5773502691896258 0.5773502691896258
    outer loop
      vertex 1.767766952966368 -1.767766952966369 0
      vertex 1.767766952966369 0 1.767766952966369
      vertex -3.2473352108831e-16 -1.767766952966369 1.767766952966369
    endloop
  endfacet
  facet normal -0.2810846377148203 -0.678598344545847 -0.678598344545847
    outer loop
      vertex 0.3535533905932738 0.3535533905932737 0
      vertex 3.061616997868383e-17 0 0.5
      vertex 3.061616997868383e-17 0.5 0
    endloop
  endfacet
  facet normal -0.2810846377148203 -0.678598344545847 0.678598344545847
    outer loop
      vertex 3.061616997868383e-17 0 -0.5
      vertex 0.3535533905932738 0.3535533905932737 0
      vertex 3.061616997868383e-17 0.5 0
    endloop
  endfacet
  facet normal 0.2810846377148202 -0.678598344545847 -0.678598344545847
    outer loop
      vertex 3.061616997868383e-17 0 0.5
      vertex -0.3535533905932737 0.3535533905932738 0
      vertex 3.061616997868383e-17 0.5 0
    endloop
  endfacet
  facet normal 0.2810846377148202 -0.678598344545847 0.6785983445458471
    outer loop
      vertex -0.3535533905932737 0.3535533905932738 0
      vertex 3.061616997868383e-17 0 -0.5
      vertex 3.061616997868383e-17 0.5 0
    endloop
  endfacet
  facet normal 0.6785983445458469 -0.2810846377148203 -0.678598344545847
    outer loop
      vertex -0.3535533905932737 0.3535533905932738 0
      vertex 3.061616997868383e-17 0 0.5
      vertex -0.5 6.123233995736766e-17 0
    endloop
  endfacet
  facet normal 0.678598344545847 -0.2810846377148202 0.678598344545847
    outer loop
      vertex 3.061616997868383e-17 0 -0.5
      vertex -0.3535533905932737 0.3535533905932738 0
      vertex -0.5 6.123233995736766e-17 0
    endloop
  endfacet
  facet normal -0.678598344545847 -0.2810846377148202 0.6785983445458469
    outer loop
      vertex 3.061616997868383e-17 0 -0.5
      vertex 0.5 0 0
      vertex 0.3535533905932738 0.3535533905932737 0
    endloop
  endfacet
  facet normal -0.678598344545847 -0.2810846377148202 -0.6785983445458469
    outer loop
      vertex 0.5 0 0
      vertex 3.061616997868383e-17 0 0.5
      vertex 0.3535533905932738 0.3535533905932737 0
    endloop
  endfacet
  facet normal 0.678598344545847 0.28108463771482 -0.678598344545847
    outer loop
      vertex 3.061616997868383e-17 0 0.5
      vertex -0.3535533905932738 -0.3535533905932737 0
      vertex -0.5 6.123233995736766e-17 0
    endloop
  endfacet
  facet normal 0.678598344545847 0.2810846377148201 0.6785983445458471
    outer loop
      vertex -0.3535533905932738 -0.3535533905932737 0
      vertex 3.061616997868383e-17 0 -0.5
      vertex -0.5 6.123233995736766e-17 0
    endloop
  endfacet
  facet normal -0.678598344545847 0.2810846377148203 -0.6785983445458469
    outer loop
      vertex 0.3535533905932737 -0.3535533905932738 0
      vertex 3.061616997868383e-17 0 0.5
      vertex 0.5 0 0
    endloop
  endfacet
  facet normal -0.678598344545847 0.2810846377148203 0.6785983445458469
    outer loop
      vertex 3.061616997868383e-17 0 -0.5
      vertex 0.3535533905932737 -0.3535533905932738 0
      vertex 0.5 0 0
    endloop
  endfacet
  facet normal 0.2810846377148203 0.6785983445458469 0.678598344545847
    outer loop
      vertex -9.184850993605148e-17 -0.5 0
      vertex 3.061616997868383e-17 0 -0.5
      vertex -0.3535533905932738 -0.3535533905932737 0
    endloop
  endfacet
  facet normal 0.2810846377148203 0.678598344545847 -0.678598344545847
    outer loop
      vertex 3.061616997868383e-17 0 0.5
      vertex -9.184850993605148e-17 -0.5 0
      vertex -0.3535533905932738 -0.3535533905932737 0
    endloop
  endfacet
  facet normal -0.2810846377148201 0.678598344545847 0.678598344545847
    outer loop
      vertex 3.061616997868383e-17 0 -0.5
      vertex -9.184850993605148e-17 -0.5 0
      vertex 0.3535533905932737 -0.3535533905932738 0
    endloop
  endfacet
  facet normal -0.2810846377148201 0.6785983445458471 -0.678598344545847
    outer loop
      vertex -9.184850993605148e-17 -0.5 0
      vertex 3.061616997868383e-17 0 0.5
      vertex 0.3535533905932737 -0.3535533905932738 0
    endloop
  endfacet
endsolid
